<svg width="33" height="33" viewBox="0 0 33 33" fill="none" xmlns="http://www.w3.org/2000/svg">
<path fill-rule="evenodd" clip-rule="evenodd" d="M5.8905 0.282815C5.60372 0.496235 5.53202 0.912338 5.53202 2.36071C5.53202 4.55698 5.68115 4.71357 7.77182 4.71357H9.21928V7.07036V9.42715H7.77182C5.63342 9.42715 5.53202 9.54656 5.53202 12.0694V14.1695L4.55899 14.0897L3.58597 14.0098L3.528 10.8836C3.49543 9.12862 3.37211 7.60692 3.24674 7.41393C2.97798 7.00018 0.97109 6.94885 0.397312 7.34139C0.0255134 7.59592 0.00113652 7.94106 0.00113652 12.9623C0.00113652 19.1824 -0.123616 18.8543 2.24094 18.8543H3.68839V22.1184C3.68839 25.9611 3.66688 25.9247 5.92819 25.9247H7.37565V29.1888C7.37565 32.1479 7.41272 32.4781 7.77182 32.724C8.34621 33.1168 13.9875 33.0796 14.2995 32.6808C14.6234 32.2668 14.6234 29.0097 14.2995 28.5957C14.1543 28.41 13.4557 28.2814 12.5925 28.2814C11.7887 28.2814 11.0899 28.2285 11.0393 28.1641C10.989 28.0997 10.9832 27.5694 11.0268 26.9857L11.1059 25.9247H16.6153H22.1247V27.103V28.2814H20.6772C18.5857 28.2814 18.4374 28.4375 18.4374 30.6382C18.4374 32.1644 18.5005 32.4959 18.8336 32.724C19.0546 32.8751 20.5449 32.995 22.2021 32.995C25.9264 32.995 25.8119 33.1257 25.8119 28.8777V25.9247H27.3233C28.3205 25.9247 28.9102 25.8079 29.0575 25.5811C29.1829 25.3881 29.3062 23.8664 29.3388 22.1114L29.3968 18.9852L30.9239 18.9072C31.764 18.8642 32.5705 18.7027 32.7163 18.5479C33.0822 18.1598 33.1 7.8502 32.7358 7.3846C32.4344 6.9994 30.4396 6.96902 29.8954 7.34139C29.5363 7.58728 29.4992 7.91749 29.4992 10.8766V14.1407H28.5997H27.7004L27.6242 12.2131C27.5222 9.63166 27.3649 9.42715 25.4797 9.42715H23.9683V7.07036V4.71357H25.3631C27.2801 4.71357 27.5531 4.41976 27.5531 2.35679C27.5531 0.406938 27.2434 0 25.7593 0C24.3796 0 23.9683 0.332831 23.9683 1.44942V2.35679H22.5208C20.3845 2.35679 20.281 2.47803 20.281 4.9846V7.07036H16.6161H12.9514L12.8727 5.08071C12.775 2.60975 12.5673 2.35679 10.6368 2.35679H9.26496L9.13078 1.4434C9.05704 0.941144 8.82249 0.410867 8.60944 0.265008C8.11167 -0.0754169 6.35633 -0.0638946 5.8905 0.282815ZM12.6945 14.6472C12.8111 14.9258 12.9065 16.2888 12.9065 17.6759C12.9065 21.0629 12.8305 21.2111 11.0967 21.2111C10.2921 21.2111 9.60787 21.0794 9.46509 20.8968C9.12709 20.4648 9.12709 14.887 9.46509 14.455C9.60787 14.2724 10.2921 14.1407 11.0967 14.1407C12.2572 14.1407 12.5169 14.2232 12.6945 14.6472ZM23.7563 14.6472C24.0316 15.3052 24.0316 20.0466 23.7563 20.7046C23.5805 21.1241 23.3197 21.2111 22.2367 21.2111C20.2014 21.2111 20.281 21.3491 20.281 17.8312C20.281 15.7989 20.3638 14.6634 20.5269 14.455C20.6696 14.2724 21.3538 14.1407 22.1585 14.1407C23.3189 14.1407 23.5787 14.2232 23.7563 14.6472Z" fill="#FC9C0D"/>
</svg>
