<svg width="43" height="33" viewBox="0 0 43 33" fill="none" xmlns="http://www.w3.org/2000/svg">
<path fill-rule="evenodd" clip-rule="evenodd" d="M7.997 0.282815C7.632 0.496235 7.54075 0.912338 7.54075 2.36071C7.54075 4.55698 7.73055 4.71357 10.3914 4.71357H12.2336V7.07036V9.42715H10.3914C7.66981 9.42715 7.54075 9.54656 7.54075 12.0694V14.1695L6.30236 14.0897L5.06396 14.0098L4.99018 10.8836C4.94872 9.12862 4.79177 7.60692 4.63222 7.41393C4.29016 7.00018 1.73593 6.94885 1.00567 7.34139C0.532472 7.59592 0.501446 7.94106 0.501446 12.9623C0.501446 19.1824 0.342671 18.8543 3.3521 18.8543H5.19432V22.1184C5.19432 25.9611 5.16694 25.9247 8.04497 25.9247H9.88719V29.1888C9.88719 32.1479 9.93438 32.4781 10.3914 32.724C11.1225 33.1168 18.3023 33.0796 18.6994 32.6808C19.1115 32.2668 19.1115 29.0097 18.6994 28.5957C18.5145 28.41 17.6255 28.2814 16.5268 28.2814C15.5038 28.2814 14.6145 28.2285 14.5501 28.1641C14.4859 28.0997 14.4786 27.5694 14.5342 26.9857L14.6348 25.9247H21.6467H28.6587V27.103V28.2814H26.8165C24.1546 28.2814 23.9658 28.4375 23.9658 30.6382C23.9658 32.1644 24.0461 32.4959 24.47 32.724C24.7513 32.8751 26.648 32.995 28.7572 32.995C33.4973 32.995 33.3515 33.1257 33.3515 28.8777V25.9247H35.2751C36.5443 25.9247 37.2949 25.8079 37.4823 25.5811C37.6419 25.3881 37.7988 23.8664 37.8403 22.1114L37.9141 18.9852L39.8577 18.9072C40.9269 18.8642 41.9533 18.7027 42.1389 18.5479C42.6046 18.1598 42.6273 7.8502 42.1637 7.3846C41.7802 6.9994 39.2414 6.96902 38.5486 7.34139C38.0916 7.58728 38.0444 7.9175 38.0444 10.8766V14.1407H36.8996H35.7551L35.6581 12.2131C35.5283 9.63166 35.328 9.42715 32.9287 9.42715H31.0051V7.07036V4.71357H32.7803C35.2201 4.71357 35.5676 4.41976 35.5676 2.35679C35.5676 0.406938 35.1734 0 33.2845 0C31.5286 0 31.0051 0.332831 31.0051 1.44942V2.35679H29.1629C26.4439 2.35679 26.3122 2.47803 26.3122 4.9846V7.07036H21.6478H16.9836L16.8835 5.08071C16.7591 2.60975 16.4947 2.35679 14.0378 2.35679H12.2918L12.121 1.4434C12.0271 0.941144 11.7286 0.410867 11.4575 0.265008C10.8239 -0.0754169 8.58987 -0.0638946 7.997 0.282815ZM16.6567 14.6472C16.805 14.9258 16.9265 16.2888 16.9265 17.6759C16.9265 21.0629 16.8298 21.2111 14.6231 21.2111C13.599 21.2111 12.7282 21.0794 12.5465 20.8968C12.1163 20.4648 12.1163 14.887 12.5465 14.455C12.7282 14.2724 13.599 14.1407 14.6231 14.1407C16.1 14.1407 16.4306 14.2232 16.6567 14.6472ZM30.7353 14.6472C31.0857 15.3052 31.0857 20.0466 30.7353 20.7046C30.5116 21.1241 30.1797 21.2111 28.8013 21.2111C26.2108 21.2111 26.3122 21.3491 26.3122 17.8312C26.3122 15.7989 26.4176 14.6634 26.6251 14.455C26.8068 14.2724 27.6776 14.1407 28.7017 14.1407C30.1786 14.1407 30.5092 14.2232 30.7353 14.6472Z" fill="#FC9C0D"/>
</svg>
