<svg width="45" height="44" viewBox="0 0 45 44" fill="none" xmlns="http://www.w3.org/2000/svg">
<mask id="mask0_3462_1389" style="mask-type:luminance" maskUnits="userSpaceOnUse" x="0" y="0" width="45" height="44">
<path d="M0.5 0H44.5V44H0.5V0Z" fill="white"/>
</mask>
<g mask="url(#mask0_3462_1389)">
<path d="M22.5 43.2263C10.7755 43.2263 1.27365 33.7214 1.27365 22C1.27365 10.2755 10.7755 0.770583 22.5 0.770583C34.2245 0.770583 43.7294 10.2755 43.7294 22C43.7294 33.7214 34.2245 43.2263 22.5 43.2263ZM22.5 0C10.3487 0 0.5 9.84873 0.5 22C0.5 34.1482 10.3487 44 22.5 44C34.6512 44 44.5 34.1482 44.5 22C44.5 9.84873 34.6512 0 22.5 0Z" fill="black"/>
</g>
<path d="M22.5001 41.2984C11.8409 41.2984 3.20173 32.6562 3.20173 22C3.20173 11.3408 11.8409 2.70169 22.5001 2.70169C33.1593 2.70169 41.7984 11.3408 41.7984 22C41.7984 32.6562 33.1593 41.2984 22.5001 41.2984ZM22.5001 0.77063C10.7755 0.77063 1.27374 10.2755 1.27374 22C1.27374 33.7246 10.7755 43.2264 22.5001 43.2264C34.2246 43.2264 43.7295 33.7246 43.7295 22C43.7295 10.2755 34.2246 0.77063 22.5001 0.77063Z" fill="white"/>
<path d="M22.5001 2.70166C11.8408 2.70166 3.20172 11.3408 3.20172 22C3.20172 32.6562 11.8408 41.2983 22.5001 41.2983C33.1593 41.2983 41.7984 32.6562 41.7984 22C41.7984 11.3408 33.1593 2.70166 22.5001 2.70166Z" fill="#DC0A0A"/>
<path d="M18.1989 14.0363V29.4786H15.3867V20.6461C15.3867 19.1817 15.3867 18.7488 14.1249 18.7488H11.6106V16.9866H11.9084C13.3482 16.965 15.2946 16.9405 15.9117 14.0363H18.1989Z" fill="white"/>
<path d="M31.5782 25.0394C31.5782 27.8546 29.1529 29.6843 25.7911 29.6843C22.2667 29.6843 20.0931 27.7164 20.0931 25.0394C20.0931 22.614 21.8553 21.7667 22.6321 21.4013C20.9865 20.6246 20.6427 18.9545 20.6427 18.0396C20.6427 15.6389 22.6321 13.7845 25.9508 13.7845C29.1314 13.7845 31.2128 15.5007 31.2128 18.1747C31.2128 19.5255 30.6633 20.6922 29.1989 21.4013C30.9826 22.2947 31.5782 23.621 31.5782 25.0394ZM23.3197 24.9473C23.3197 26.252 24.2346 27.1454 25.9262 27.1454C27.4152 27.1454 28.5143 26.3656 28.5143 24.9258C28.5143 24.6495 28.4682 22.7276 25.9262 22.7276C23.4794 22.7276 23.3197 24.4683 23.3197 24.9473ZM23.5715 18.3835C23.5715 19.0681 23.8693 20.4189 25.9508 20.4189C27.759 20.4189 28.2165 19.2523 28.2165 18.3835C28.2165 16.6213 26.8196 16.302 25.9262 16.302C23.9829 16.2775 23.5715 17.5362 23.5715 18.3835Z" fill="white"/>
</svg>
