<svg width="39" height="39" viewBox="0 0 39 39" fill="none" xmlns="http://www.w3.org/2000/svg">
<path fill-rule="evenodd" clip-rule="evenodd" d="M18.9995 0.243112C18.1171 0.618062 17.5864 1.50672 15.2951 6.44436C13.6777 9.92933 12.9868 11.158 12.5923 11.2499C12.3007 11.3177 10.0886 11.6791 7.67628 12.053C1.73344 12.9745 1.3921 13.0778 0.980073 14.084C0.382539 15.5422 0.826046 16.254 5.01524 20.5603L8.93456 24.5889L7.95776 30.2585C7.02379 35.6802 6.99954 35.9648 7.40563 36.7703C7.79393 37.5414 8.6683 38.1221 9.43457 38.1181C9.60279 38.1173 11.9377 36.9258 14.6233 35.4702C17.3091 34.0146 19.6167 32.8238 19.7516 32.8238C19.8863 32.8238 22.0731 33.9481 24.6111 35.3224C27.1488 36.6967 29.4649 37.8992 29.7575 37.9945C30.5537 38.2537 31.8202 37.6005 32.1685 36.7507C32.4239 36.1271 32.3241 35.0473 31.5728 30.303L30.6703 24.6043L34.7178 20.4205C38.5907 16.4176 38.7656 16.191 38.7656 15.1763C38.7656 13.2726 38.341 13.0783 32.0372 12.0956L26.5105 11.234L24.037 6.07497C22.6766 3.23742 21.3987 0.776675 21.1974 0.606146C20.6585 0.150168 19.6213 -0.0214191 18.9995 0.243112Z" fill="#FC9C0D"/>
</svg>
