<svg width="39" height="39" viewBox="0 0 39 39" fill="none" xmlns="http://www.w3.org/2000/svg">
<path fill-rule="evenodd" clip-rule="evenodd" d="M18.9839 0.596627C18.1015 0.971578 17.5708 1.86023 15.2795 6.79787C13.6621 10.2828 12.9711 11.5115 12.5766 11.6034C12.2851 11.6712 10.073 12.0326 7.66065 12.4065C1.71782 13.328 1.37648 13.4313 0.964448 14.4375C0.366914 15.8957 0.810421 16.6075 4.99961 20.9139L8.91893 24.9425L7.94214 30.612C7.00817 36.0337 6.98391 36.3183 7.39001 37.1238C7.7783 37.8949 8.65268 38.4756 9.41894 38.4717C9.58716 38.4709 11.9221 37.2793 14.6076 35.8237C17.2935 34.3681 19.601 33.1773 19.736 33.1773C19.8706 33.1773 22.0575 34.3017 24.5954 35.6759C27.1332 37.0502 29.4493 38.2527 29.7418 38.348C30.538 38.6072 31.8046 37.954 32.1529 37.1043C32.4083 36.4807 32.3084 35.4008 31.5571 30.6565L30.6546 24.9578L34.7022 20.774C38.5751 16.7711 38.75 16.5445 38.75 15.5298C38.75 13.6262 38.3253 13.4318 32.0215 12.4491L26.4949 11.5875L24.0214 6.42848C22.6609 3.59094 21.3831 1.13019 21.1818 0.959662C20.6428 0.503684 19.6057 0.332096 18.9839 0.596627Z" fill="#FC9C0D"/>
</svg>
