<svg width="37" height="37" viewBox="0 0 37 37" fill="none" xmlns="http://www.w3.org/2000/svg">
<path fill-rule="evenodd" clip-rule="evenodd" d="M4.75432 0.113634C3.98687 0.226341 3.64337 0.40992 3.18574 0.952263C2.52165 1.73929 2.40669 3.02819 2.91249 4.0138C3.18961 4.55353 4.08955 5.16124 4.78413 5.27752L5.37535 5.3766L4.90944 5.74307C3.01337 7.23483 2.07175 8.31016 1.20921 9.96897C0.167675 11.9716 -0.00800819 12.7807 0.000272209 15.5364C0.00703453 17.8168 0.0988091 18.7212 0.552023 20.9722C1.55298 25.9456 4.101 30.9321 7.59947 34.7643C8.67081 35.938 9.4017 36.4239 10.6749 36.8092C11.1834 36.9632 12.7365 37.0011 18.486 37C25.6362 36.9986 25.6656 36.9974 26.5686 36.6796C27.7386 36.2676 28.2995 35.8785 29.2887 34.7928C32.3896 31.3888 34.7357 27.0798 35.9894 22.4859C36.7441 19.7204 37.1925 15.5274 36.9194 13.7888C36.383 10.3729 34.6869 7.63185 31.9373 5.73729C31.6481 5.53803 31.6278 5.48119 31.8036 5.36092C31.9175 5.28316 32.1513 5.21848 32.3231 5.21725C33.229 5.21119 34.2877 3.82045 34.2877 2.63682C34.2877 1.59369 33.4482 0.418039 32.5175 0.157808C32.3147 0.100973 28.2051 0.0545967 23.3852 0.0545967H14.6218L14.5528 4.62054C14.487 8.98076 14.4708 9.20397 14.1951 9.57471C13.4773 10.5399 12.5078 10.8127 11.5456 10.32C10.5572 9.81402 10.5506 9.77741 10.5506 4.77426C10.5506 1.4902 10.507 0.27258 10.385 0.150928C10.2052 -0.0283854 5.91565 -0.0567342 4.75432 0.113634ZM31.5571 17.0501C31.4819 19.2765 30.7034 22.2653 29.4861 25.0009C29.0309 26.0236 28.7776 26.434 28.5707 26.4838C28.4132 26.5217 23.7509 26.5356 18.21 26.5148L8.13549 26.4768L7.55751 25.3071C6.90943 23.9956 6.13356 21.7692 5.78303 20.2153C5.52137 19.0557 5.15786 16.0775 5.25819 15.9156C5.29407 15.8575 11.235 15.826 18.46 15.8453L31.5966 15.8804L31.5571 17.0501Z" fill="#FC9C0D"/>
</svg>
