<svg width="38" height="37" viewBox="0 0 38 37" fill="none" xmlns="http://www.w3.org/2000/svg">
<path fill-rule="evenodd" clip-rule="evenodd" d="M5.25432 0.113634C4.48687 0.226341 4.14337 0.40992 3.68574 0.952263C3.02165 1.73929 2.90669 3.02819 3.41249 4.0138C3.68961 4.55353 4.58955 5.16124 5.28413 5.27752L5.87535 5.3766L5.40944 5.74307C3.51337 7.23483 2.57175 8.31016 1.70921 9.96897C0.667675 11.9716 0.491992 12.7807 0.500272 15.5364C0.507035 17.8168 0.598809 18.7212 1.05202 20.9722C2.05298 25.9456 4.601 30.9321 8.09947 34.7643C9.17081 35.938 9.9017 36.4239 11.1749 36.8092C11.6834 36.9632 13.2365 37.0011 18.986 37C26.1362 36.9986 26.1656 36.9974 27.0686 36.6796C28.2386 36.2676 28.7995 35.8785 29.7887 34.7928C32.8896 31.3888 35.2357 27.0798 36.4894 22.4859C37.2441 19.7204 37.6925 15.5274 37.4194 13.7888C36.883 10.3729 35.1869 7.63185 32.4373 5.73729C32.1481 5.53803 32.1278 5.48119 32.3036 5.36092C32.4175 5.28316 32.6513 5.21848 32.8231 5.21725C33.729 5.21119 34.7877 3.82045 34.7877 2.63682C34.7877 1.59369 33.9482 0.418039 33.0175 0.157808C32.8147 0.100973 28.7051 0.0545967 23.8852 0.0545967H15.1218L15.0528 4.62054C14.987 8.98076 14.9708 9.20397 14.6951 9.57471C13.9773 10.5399 13.0078 10.8127 12.0456 10.32C11.0572 9.81402 11.0506 9.77741 11.0506 4.77426C11.0506 1.4902 11.007 0.27258 10.885 0.150928C10.7052 -0.0283854 6.41565 -0.0567342 5.25432 0.113634ZM32.0571 17.0501C31.9819 19.2765 31.2034 22.2653 29.9861 25.0009C29.5309 26.0236 29.2776 26.434 29.0707 26.4838C28.9132 26.5217 24.2509 26.5356 18.71 26.5148L8.63549 26.4768L8.05751 25.3071C7.40943 23.9956 6.63356 21.7692 6.28303 20.2153C6.02137 19.0557 5.65786 16.0775 5.75819 15.9156C5.79407 15.8575 11.735 15.826 18.96 15.8453L32.0966 15.8804L32.0571 17.0501Z" fill="#FC9C0D"/>
</svg>
