<svg width="42" height="42" viewBox="0 0 42 42" fill="none" xmlns="http://www.w3.org/2000/svg">
<path fill-rule="evenodd" clip-rule="evenodd" d="M18.5716 0.152733C18.5675 0.233069 18.5605 2.56632 18.5561 5.33806L18.5478 10.3773L21.0594 10.4617L23.5712 10.5462V8.01924V5.49201L24.6723 5.68015C25.2781 5.78356 26.845 6.38681 28.1543 7.02103C31.0801 8.43728 33.9135 11.2499 35.2763 14.0903C38.4784 20.7658 36.7615 28.5809 31.059 33.2859C23.9723 39.1329 12.6342 37.4313 7.69868 29.7795C3.62617 23.4657 4.40285 15.6138 9.65844 9.96629L11.6282 7.8498L9.82288 6.05378L8.01758 4.25776L6.66448 5.56475C2.32388 9.75771 -0.000880673 15.156 2.50264e-07 21.0401C0.00146846 31.7181 7.60795 40.3082 18.391 41.8089C24.7768 42.6978 31.1621 40.4583 35.9041 35.6668C39.4715 32.0622 41.1418 28.6294 41.8486 23.4502C42.4241 19.2336 41.3288 14.0386 39.0816 10.3221C36.871 6.66667 32.7974 3.18359 28.8811 1.60053C27.917 1.21083 25.9802 0.692591 24.5772 0.449246C22.125 0.0239033 18.5875 -0.150791 18.5716 0.152733ZM12.885 13.1201C11.9738 14.0488 11.8246 14.3556 12.0686 14.7999C12.2328 15.099 14.2977 17.2436 16.6574 19.566L20.9478 23.7885L22.3291 22.414L23.7106 21.0398L19.1662 16.5118C16.6671 14.0217 14.4824 11.984 14.3112 11.984C14.1403 11.984 13.4984 12.4953 12.885 13.1201Z" fill="#FC9C0D"/>
</svg>
