<svg width="32" height="32" viewBox="0 0 32 32" fill="none" xmlns="http://www.w3.org/2000/svg">
<path d="M28.1786 0.533691H3.82143C2.94053 0.533691 2.09571 0.883627 1.47282 1.50652C0.849935 2.1294 0.5 2.97422 0.5 3.85512L0.5 28.2123C0.5 29.0932 0.849935 29.938 1.47282 30.5609C2.09571 31.1838 2.94053 31.5337 3.82143 31.5337H13.3186V20.9944H8.95926V16.0337H13.3186V12.2528C13.3186 7.95224 15.8789 5.57673 19.8003 5.57673C21.6783 5.57673 23.6421 5.91164 23.6421 5.91164V10.1326H21.4783C19.3463 10.1326 18.6814 11.4557 18.6814 12.8126V16.0337H23.4407L22.6795 20.9944H18.6814V31.5337H28.1786C29.0595 31.5337 29.9043 31.1838 30.5272 30.5609C31.1501 29.938 31.5 29.0932 31.5 28.2123V3.85512C31.5 2.97422 31.1501 2.1294 30.5272 1.50652C29.9043 0.883627 29.0595 0.533691 28.1786 0.533691Z" fill="#FC9C0D"/>
</svg>
