<svg width="38" height="37" viewBox="0 0 38 37" fill="none" xmlns="http://www.w3.org/2000/svg">
<path d="M14.5641 10.6303C15.1061 10.3195 15.7782 10.2689 16.313 10.6592L26.7192 17.0186C27.2323 17.3365 27.5503 17.893 27.5503 18.5C27.5503 19.107 27.2323 19.6635 26.7192 19.9814L16.313 26.3408C15.7782 26.666 15.1061 26.6805 14.5641 26.3697C14.0149 26.0662 13.6753 25.4881 13.6753 24.8594V12.0756C13.6753 11.5119 14.0149 10.9338 14.5641 10.6303ZM37.9565 18.5C37.9565 28.7184 29.6749 37 19.4565 37C9.23815 37 0.956512 28.7184 0.956512 18.5C0.956512 8.28164 9.23815 0 19.4565 0C29.6749 0 37.9565 8.28164 37.9565 18.5ZM19.4565 3.46875C11.1532 3.46875 4.42526 10.1967 4.42526 18.5C4.42526 26.8033 11.1532 33.5312 19.4565 33.5312C27.7598 33.5312 34.4878 26.8033 34.4878 18.5C34.4878 10.1967 27.7598 3.46875 19.4565 3.46875Z" fill="#FC9C0D"/>
</svg>
