<svg width="38" height="37" viewBox="0 0 38 37" fill="none" xmlns="http://www.w3.org/2000/svg">
<path d="M14.1076 10.6303C14.6496 10.3195 15.3217 10.2689 15.8564 10.6592L26.2627 17.0186C26.7758 17.3365 27.0938 17.893 27.0938 18.5C27.0938 19.107 26.7758 19.6635 26.2627 19.9814L15.8564 26.3408C15.3217 26.666 14.6496 26.6805 14.1076 26.3697C13.5584 26.0662 13.2188 25.4881 13.2188 24.8594V12.0756C13.2188 11.5119 13.5584 10.9338 14.1076 10.6303ZM37.5 18.5C37.5 28.7184 29.2184 37 19 37C8.78164 37 0.5 28.7184 0.5 18.5C0.5 8.28164 8.78164 0 19 0C29.2184 0 37.5 8.28164 37.5 18.5ZM19 3.46875C10.6967 3.46875 3.96875 10.1967 3.96875 18.5C3.96875 26.8033 10.6967 33.5312 19 33.5312C27.3033 33.5312 34.0312 26.8033 34.0312 18.5C34.0312 10.1967 27.3033 3.46875 19 3.46875Z" fill="#FC9C0D"/>
</svg>
