<svg width="32" height="33" viewBox="0 0 32 33" fill="none" xmlns="http://www.w3.org/2000/svg">
<path d="M16.9703 13.5929L1.00157 29.5554C0.414069 30.1429 0.414069 31.0929 1.00157 31.6742C1.58907 32.2554 2.53907 32.2617 3.12032 31.6742L6.68282 28.1117H10.9328C14.0391 28.1117 17.0516 27.2117 19.6203 25.5492C20.3141 25.0992 19.9641 24.1117 19.1328 24.1117C18.8141 24.1117 18.5578 23.8554 18.5578 23.5367C18.5578 23.2804 18.7266 23.0617 18.9641 22.9867L24.0266 21.4679C24.1828 21.4179 24.3266 21.3367 24.4453 21.2179L25.8453 19.8179C26.4766 19.1867 26.0266 18.1117 25.1391 18.1117H23.1266C22.8078 18.1117 22.5516 17.8554 22.5516 17.5367C22.5516 17.2804 22.7203 17.0617 22.9578 16.9867L29.9578 14.8867C30.2078 14.8117 30.4203 14.6429 30.5391 14.4054C31.2141 13.0929 31.5641 11.6242 31.5641 10.1179C31.5641 7.55542 30.5453 5.09917 28.7328 3.28667L28.3891 2.94292C26.5828 1.13667 24.1266 0.11792 21.5641 0.11792C19.0016 0.11792 16.5453 1.13667 14.7328 2.94917L8.25157 9.43042C5.25157 12.4304 3.56407 16.4992 3.56407 20.7429V24.1992L15.4141 12.3554C15.8016 11.9679 16.4391 11.9679 16.8266 12.3554C17.1641 12.6929 17.2078 13.2054 16.9641 13.5929H16.9703Z" fill="#FC9C0D"/>
</svg>
