<svg width="39" height="38" viewBox="0 0 39 38" fill="none" xmlns="http://www.w3.org/2000/svg">
<path d="M19.5 38C29.9945 38 38.5 29.4945 38.5 19C38.5 8.50547 29.9945 0 19.5 0C9.00547 0 0.5 8.50547 0.5 19C0.5 29.4945 9.00547 38 19.5 38ZM13.1023 12.2684C13.6887 10.6133 15.2621 9.5 17.0211 9.5H21.348C23.9383 9.5 26.0312 11.6004 26.0312 14.1832C26.0312 15.8605 25.1332 17.4117 23.6785 18.2504L21.2812 19.6234C21.2664 20.5883 20.4723 21.375 19.5 21.375C18.5129 21.375 17.7188 20.5809 17.7188 19.5938V18.5918C17.7188 17.9535 18.0602 17.3672 18.6168 17.048L21.9047 15.1629C22.2535 14.9625 22.4688 14.5914 22.4688 14.1906C22.4688 13.5672 21.9641 13.0699 21.348 13.0699H17.0211C16.7688 13.0699 16.5461 13.2258 16.4645 13.4633L16.4348 13.5523C16.1082 14.4801 15.084 14.9625 14.1637 14.6359C13.2434 14.3094 12.7535 13.2852 13.0801 12.3648L13.1098 12.2758L13.1023 12.2684ZM21.875 26.125C21.875 27.4387 20.8137 28.5 19.5 28.5C18.1863 28.5 17.125 27.4387 17.125 26.125C17.125 24.8113 18.1863 23.75 19.5 23.75C20.8137 23.75 21.875 24.8113 21.875 26.125Z" fill="#FC9C0D"/>
</svg>
