<svg width="39" height="39" viewBox="0 0 39 39" fill="none" xmlns="http://www.w3.org/2000/svg">
<path d="M19.125 38.1179C29.6195 38.1179 38.125 29.6125 38.125 19.1179C38.125 8.62339 29.6195 0.11792 19.125 0.11792C8.63047 0.11792 0.125 8.62339 0.125 19.1179C0.125 29.6125 8.63047 38.1179 19.125 38.1179ZM12.7273 12.3863C13.3137 10.7312 14.8871 9.61792 16.6461 9.61792H20.973C23.5633 9.61792 25.6562 11.7183 25.6562 14.3011C25.6562 15.9785 24.7582 17.5296 23.3035 18.3683L20.9062 19.7414C20.8914 20.7062 20.0973 21.4929 19.125 21.4929C18.1379 21.4929 17.3438 20.6988 17.3438 19.7117V18.7097C17.3438 18.0714 17.6852 17.4851 18.2418 17.166L21.5297 15.2808C21.8785 15.0804 22.0938 14.7093 22.0938 14.3085C22.0938 13.6851 21.5891 13.1878 20.973 13.1878H16.6461C16.3938 13.1878 16.1711 13.3437 16.0895 13.5812L16.0598 13.6703C15.7332 14.598 14.709 15.0804 13.7887 14.7539C12.8684 14.4273 12.3785 13.4031 12.7051 12.4828L12.7348 12.3937L12.7273 12.3863ZM21.5 26.2429C21.5 27.5566 20.4387 28.6179 19.125 28.6179C17.8113 28.6179 16.75 27.5566 16.75 26.2429C16.75 24.9292 17.8113 23.8679 19.125 23.8679C20.4387 23.8679 21.5 24.9292 21.5 26.2429Z" fill="#FC9C0D"/>
</svg>
