<svg width="32" height="32" viewBox="0 0 32 32" fill="none" xmlns="http://www.w3.org/2000/svg">
<path d="M16 12.3428C15.2701 12.343 14.5566 12.5597 13.9498 12.9655C13.343 13.3712 12.8702 13.9477 12.591 14.6222C12.3119 15.2966 12.239 16.0387 12.3815 16.7546C12.5241 17.4705 12.8757 18.128 13.392 18.6441C13.9082 19.1601 14.5659 19.5115 15.2818 19.6538C15.9978 19.7961 16.7398 19.7229 17.4142 19.4435C18.0885 19.1641 18.6649 18.6911 19.0704 18.0841C19.4759 17.4772 19.6923 16.7636 19.6923 16.0337C19.6916 15.0548 19.3023 14.1162 18.61 13.4241C17.9176 12.7321 16.9789 12.3431 16 12.3428ZM24.6295 9.5057C24.4416 9.02952 24.1578 8.59703 23.7959 8.23505C23.4339 7.87307 23.0014 7.58934 22.5252 7.40144C21.0721 6.8278 17.6123 6.9565 16 6.9565C14.3877 6.9565 10.9314 6.82295 9.47408 7.40144C8.9979 7.58934 8.56541 7.87307 8.20343 8.23505C7.84146 8.59703 7.55772 9.02952 7.36982 9.5057C6.79687 10.9588 6.92489 14.4221 6.92489 16.033C6.92489 17.6439 6.79687 21.103 7.37259 22.561C7.56049 23.0372 7.84423 23.4697 8.2062 23.8316C8.56818 24.1936 9.00067 24.4774 9.47685 24.6653C10.93 25.2389 14.3898 25.1102 16.0028 25.1102C17.6157 25.1102 21.0707 25.2437 22.528 24.6653C23.0042 24.4774 23.4367 24.1936 23.7986 23.8316C24.1606 23.4697 24.4444 23.0372 24.6323 22.561C25.21 21.1079 25.0772 17.6446 25.0772 16.0337C25.0772 14.4228 25.21 10.9644 24.6323 9.50639L24.6295 9.5057ZM16 21.7078C14.8778 21.7078 13.7807 21.375 12.8476 20.7515C11.9145 20.1281 11.1873 19.2419 10.7578 18.2051C10.3283 17.1683 10.216 16.0274 10.4349 14.9267C10.6539 13.8261 11.1943 12.815 11.9878 12.0215C12.7813 11.228 13.7924 10.6875 14.893 10.4686C15.9937 10.2497 17.1346 10.362 18.1714 10.7915C19.2082 11.221 20.0944 11.9482 20.7178 12.8813C21.3413 13.8144 21.6741 14.9115 21.6741 16.0337C21.675 16.7791 21.5289 17.5173 21.244 18.2062C20.9592 18.895 20.5413 19.5209 20.0142 20.0479C19.4872 20.575 18.8613 20.9929 18.1725 21.2777C17.4836 21.5626 16.7454 21.7087 16 21.7078ZM21.908 11.446C21.646 11.4461 21.3899 11.3685 21.172 11.2231C20.9541 11.0777 20.7842 10.8709 20.6839 10.6289C20.5835 10.3869 20.5572 10.1205 20.6082 9.86359C20.6593 9.60663 20.7854 9.37058 20.9705 9.18529C21.1557 8.99999 21.3917 8.87379 21.6487 8.82263C21.9056 8.77147 22.1719 8.79766 22.414 8.89788C22.656 8.9981 22.8629 9.16785 23.0085 9.38567C23.154 9.60348 23.2317 9.85957 23.2317 10.1215C23.2324 10.2955 23.1988 10.4679 23.1328 10.6289C23.0667 10.7898 22.9695 10.9361 22.8468 11.0594C22.7241 11.1827 22.5782 11.2806 22.4176 11.3474C22.257 11.4142 22.0847 11.4486 21.9108 11.4487L21.908 11.446ZM28.1786 0.533691H3.82143C2.94053 0.533691 2.09571 0.883627 1.47282 1.50652C0.849935 2.1294 0.5 2.97422 0.5 3.85512L0.5 28.2123C0.5 29.0932 0.849935 29.938 1.47282 30.5609C2.09571 31.1838 2.94053 31.5337 3.82143 31.5337H28.1786C29.0595 31.5337 29.9043 31.1838 30.5272 30.5609C31.1501 29.938 31.5 29.0932 31.5 28.2123V3.85512C31.5 2.97422 31.1501 2.1294 30.5272 1.50652C29.9043 0.883627 29.0595 0.533691 28.1786 0.533691ZM26.9939 20.6007C26.9047 22.3742 26.4999 23.9456 25.2052 25.2368C23.9105 26.528 22.3405 26.9411 20.569 27.0255C18.7416 27.1286 13.2626 27.1286 11.4351 27.0255C9.66161 26.9363 8.09569 26.5308 6.79895 25.2368C5.50221 23.9428 5.09464 22.3707 5.01022 20.6007C4.90712 18.7725 4.90712 13.2928 5.01022 11.4667C5.09949 9.69322 5.49944 8.12177 6.79895 6.83057C8.09846 5.53936 9.66853 5.1311 11.4351 5.04668C13.2626 4.94358 18.7416 4.94358 20.569 5.04668C22.3425 5.13595 23.9133 5.54144 25.2052 6.83541C26.4971 8.12938 26.9095 9.70153 26.9939 11.475C27.097 13.2963 27.097 18.7711 26.9939 20.6007Z" fill="#FC9C0D"/>
</svg>
